# Tiled2Unity generated file. Do not modify by hand.
# Wavefront file for 'Level_01_mesh_0002.obj'

# Vertices (Count = 96)
v -9.28 -1.92 0
v -9.44 -1.92 0
v -9.44 -1.76 0
v -9.28 -1.76 0
v -7.52 -2.24 0
v -7.68 -2.24 0
v -7.68 -2.08 0
v -7.52 -2.08 0
v -7.68 -2.24 0
v -7.84 -2.24 0
v -7.84 -2.08 0
v -7.68 -2.08 0
v -7.84 -2.4 0
v -8 -2.4 0
v -8 -2.24 0
v -7.84 -2.24 0
v -8.96 -2.4 0
v -9.12 -2.4 0
v -9.12 -2.24 0
v -8.96 -2.24 0
v -9.12 -2.4 0
v -9.28 -2.4 0
v -9.28 -2.24 0
v -9.12 -2.24 0
v -8 -2.56 0
v -8.16 -2.56 0
v -8.16 -2.4 0
v -8 -2.4 0
v -8.8 -2.72 0
v -8.96 -2.72 0
v -8.96 -2.56 0
v -8.8 -2.56 0
v -8.16 -2.88 0
v -8.32 -2.88 0
v -8.32 -2.72 0
v -8.16 -2.72 0
v -8.639999 -2.88 0
v -8.8 -2.88 0
v -8.8 -2.72 0
v -8.639999 -2.72 0
v -8 -3.04 0
v -8.16 -3.04 0
v -8.16 -2.88 0
v -8 -2.88 0
v -8.16 -3.04 0
v -8.32 -3.04 0
v -8.32 -2.88 0
v -8.16 -2.88 0
v -8.32 -3.04 0
v -8.48 -3.04 0
v -8.48 -2.88 0
v -8.32 -2.88 0
v -8.48 -3.04 0
v -8.639999 -3.04 0
v -8.639999 -2.88 0
v -8.48 -2.88 0
v -8.639999 -3.04 0
v -8.8 -3.04 0
v -8.8 -2.88 0
v -8.639999 -2.88 0
v -8.8 -3.04 0
v -8.96 -3.04 0
v -8.96 -2.88 0
v -8.8 -2.88 0
v -8 -3.2 0
v -8.16 -3.2 0
v -8.16 -3.04 0
v -8 -3.04 0
v -8.16 -3.2 0
v -8.32 -3.2 0
v -8.32 -3.04 0
v -8.16 -3.04 0
v -8.639999 -3.2 0
v -8.8 -3.2 0
v -8.8 -3.04 0
v -8.639999 -3.04 0
v -8.8 -3.2 0
v -8.96 -3.2 0
v -8.96 -3.04 0
v -8.8 -3.04 0
v -8 -3.36 0
v -8.16 -3.36 0
v -8.16 -3.2 0
v -8 -3.2 0
v -8.16 -3.36 0
v -8.32 -3.36 0
v -8.32 -3.2 0
v -8.16 -3.2 0
v -8.639999 -3.36 0
v -8.8 -3.36 0
v -8.8 -3.2 0
v -8.639999 -3.2 0
v -8.8 -3.36 0
v -8.96 -3.36 0
v -8.96 -3.2 0
v -8.8 -3.2 0

# Texture cooridinates (Count = 36)
vt 0.04 0.6521739
vt 0.08 0.6521739
vt 0.08 0.6956522
vt 0.04 0.6956522
vt 0.12 0.8260869
vt 0.16 0.8260869
vt 0.16 0.8695652
vt 0.12 0.8695652
vt 0.2 0.9130435
vt 0.24 0.9130435
vt 0.24 0.9565217
vt 0.2 0.9565217
vt 0.32 0.5652174
vt 0.36 0.5652174
vt 0.36 0.6086956
vt 0.32 0.6086956
vt 0.04 0.9130435
vt 0.08 0.9130435
vt 0.08 0.9565217
vt 0.04 0.9565217
vt 0.76 0.5652174
vt 0.8 0.5652174
vt 0.8 0.6086956
vt 0.76 0.6086956
vt 0.6 0.5652174
vt 0.64 0.5652174
vt 0.64 0.6086956
vt 0.6 0.6086956
vt 0.76 0.4782609
vt 0.8 0.4782609
vt 0.8 0.5217391
vt 0.76 0.5217391
vt 0.6 0.4782609
vt 0.64 0.4782609
vt 0.64 0.5217391
vt 0.6 0.5217391

# Normal
vn 0 0 -1

# Mesh description
g Level_01_mesh_0002

# Faces
f 1/1/1 2/2/1 3/3/1 4/4/1
f 5/1/1 6/2/1 7/3/1 8/4/1
f 9/1/1 10/2/1 11/3/1 12/4/1
f 13/1/1 14/2/1 15/3/1 16/4/1
f 17/1/1 18/2/1 19/3/1 20/4/1
f 21/1/1 22/2/1 23/3/1 24/4/1
f 25/1/1 26/2/1 27/3/1 28/4/1
f 29/1/1 30/2/1 31/3/1 32/4/1
f 33/1/1 34/2/1 35/3/1 36/4/1
f 37/1/1 38/2/1 39/3/1 40/4/1
f 41/5/1 42/6/1 43/7/1 44/8/1
f 45/9/1 46/10/1 47/11/1 48/12/1
f 49/13/1 50/14/1 51/15/1 52/16/1
f 53/13/1 54/14/1 55/15/1 56/16/1
f 57/17/1 58/18/1 59/19/1 60/20/1
f 61/5/1 62/6/1 63/7/1 64/8/1
f 65/5/1 66/6/1 67/7/1 68/8/1
f 69/21/1 70/22/1 71/23/1 72/24/1
f 73/25/1 74/26/1 75/27/1 76/28/1
f 77/5/1 78/6/1 79/7/1 80/8/1
f 81/5/1 82/6/1 83/7/1 84/8/1
f 85/29/1 86/30/1 87/31/1 88/32/1
f 89/33/1 90/34/1 91/35/1 92/36/1
f 93/5/1 94/6/1 95/7/1 96/8/1

